<?xml version="1.0" encoding="UTF-8" standalone="no"?><svg xmlns="http://www.w3.org/2000/svg" xmlns:xlink="http://www.w3.org/1999/xlink" contentStyleType="text/css" height="269px" preserveAspectRatio="none" style="width:532px;height:269px;background:#FFFFFF;" version="1.1" viewBox="0 0 532 269" width="532px" zoomAndPan="magnify"><defs/><g><rect height="26.2969" style="stroke:#00000000;stroke-width:1.0;fill:none;" width="160" x="179.25" y="5"/><text fill="#000000" font-family="sans-serif" font-size="14" font-weight="bold" lengthAdjust="spacing" textLength="150" x="184.25" y="22.9951">Cu01- Ver Pruebas</text><!--MD5=[fee662a292a0353a69bd162820bae93b]
entity User--><g id="elem_User"><ellipse cx="22" cy="106.7969" fill="#F1F1F1" rx="8" ry="8" style="stroke:#181818;stroke-width:0.5;"/><path d="M22,114.7969 L22,141.7969 M9,122.7969 L35,122.7969 M22,141.7969 L9,156.7969 M22,141.7969 L35,156.7969 " fill="none" style="stroke:#181818;stroke-width:0.5;"/><text fill="#000000" font-family="sans-serif" font-size="14" lengthAdjust="spacing" textLength="32" x="6" y="171.292">User</text></g><!--MD5=[98d549edf24acc2c6cdc78721964eae1]
entity Sys--><g id="elem_Sys"><ellipse cx="512.5" cy="106.7969" fill="#F1F1F1" rx="8" ry="8" style="stroke:#181818;stroke-width:0.5;"/><path d="M512.5,114.7969 L512.5,141.7969 M499.5,122.7969 L525.5,122.7969 M512.5,141.7969 L499.5,156.7969 M512.5,141.7969 L525.5,156.7969 " fill="none" style="stroke:#181818;stroke-width:0.5;"/><text fill="#000000" font-family="sans-serif" font-size="14" lengthAdjust="spacing" textLength="24" x="500.5" y="171.292">Sys</text></g><g id="elem_Usuario se loguea"><ellipse cx="268.288" cy="62.1545" fill="#F1F1F1" rx="82.288" ry="18.8576" style="stroke:#181818;stroke-width:0.5;"/><text fill="#000000" font-family="sans-serif" font-size="14" lengthAdjust="spacing" textLength="124" x="205.4505" y="65.2807">Usuario se loguea</text></g><g id="elem_Se solicita el listado"><ellipse cx="268.5998" cy="136.5168" fill="#F1F1F1" rx="86.5998" ry="19.72" style="stroke:#181818;stroke-width:0.5;"/><text fill="#000000" font-family="sans-serif" font-size="14" lengthAdjust="spacing" textLength="134" x="201.5998" y="139.3635">Se solicita el listado</text></g><g id="elem_Sistema muestra listado de pruebas a realizar"><ellipse cx="268.5296" cy="227.3028" fill="#F1F1F1" rx="170.5296" ry="36.5059" style="stroke:#181818;stroke-width:0.5;"/><text fill="#000000" font-family="sans-serif" font-size="14" lengthAdjust="spacing" textLength="313" x="112.0296" y="230.1495">Sistema muestra listado de pruebas a realizar</text></g><!--MD5=[3e7a2194345bb93376aef765a2aa6a4a]
link User to Usuario se loguea--><g id="link_User_Usuario se loguea"><path d="M38.04,127.5169 C52.85,119.1969 76.35,106.8769 98,99.2969 C129.04,88.4369 164.44,80.1069 194.82,74.1269 " fill="none" id="User-to-Usuario se loguea" style="stroke:#181818;stroke-width:1.0;"/><polygon fill="#181818" points="200.05,73.1169,190.4575,70.8843,195.1396,74.059,191.9649,78.741,200.05,73.1169" style="stroke:#181818;stroke-width:1.0;"/></g><!--MD5=[35f30fa782d2759d062b603432e74792]
link Usuario se loguea to Sys--><g id="link_Usuario se loguea_Sys"><path d="M337.02,72.9169 C368.54,78.9069 406.24,87.5869 439,99.2969 C458.73,106.3469 479.92,117.6369 494.26,125.8969 " fill="none" id="Usuario se loguea-to-Sys" style="stroke:#181818;stroke-width:1.0;"/><polygon fill="#181818" points="498.85,128.5669,493.0882,120.5793,494.5301,126.0493,489.0601,127.4912,498.85,128.5669" style="stroke:#181818;stroke-width:1.0;"/></g><!--MD5=[6ff1a4d24d024a4ac4d6c5138e3921cf]
link User to Se solicita el listado--><g id="link_User_Se solicita el listado"><path d="M38.29,136.2969 C65.69,136.2969 125.06,136.2969 176.52,136.2969 " fill="none" id="User-to-Se solicita el listado" style="stroke:#181818;stroke-width:1.0;"/><polygon fill="#181818" points="181.79,136.2969,172.79,132.2969,176.79,136.2969,172.79,140.2969,181.79,136.2969" style="stroke:#181818;stroke-width:1.0;"/></g><!--MD5=[08343c4cd71d6765d66693ba58527dc7]
link Se solicita el listado to Sys--><g id="link_Se solicita el listado_Sys"><path d="M355.16,136.2969 C405.59,136.2969 465,136.2969 493.92,136.2969 " fill="none" id="Se solicita el listado-to-Sys" style="stroke:#181818;stroke-width:1.0;"/><polygon fill="#181818" points="498.95,136.2969,489.95,132.2969,493.95,136.2969,489.95,140.2969,498.95,136.2969" style="stroke:#181818;stroke-width:1.0;"/></g><!--MD5=[7488559ff000cb23d2cc324a07fcdbcc]
reverse link User to Sistema muestra listado de pruebas a realizar--><g id="link_User_Sistema muestra listado de pruebas a realizar"><path d="M42.62,146.9869 C57.54,154.8669 78.72,165.5169 98,173.2969 C119.91,182.1369 143.86,190.5069 166.68,197.9169 " fill="none" id="User-backto-Sistema muestra listado de pruebas a realizar" style="stroke:#181818;stroke-width:1.0;"/><polygon fill="#181818" points="38.2,144.6369,44.2848,152.3812,42.6196,146.975,48.0258,145.3098,38.2,144.6369" style="stroke:#181818;stroke-width:1.0;"/></g><!--MD5=[975a17699ed7353bd0249c1e339f07b2]
reverse link Sistema muestra listado de pruebas a realizar to Sys--><g id="link_Sistema muestra listado de pruebas a realizar_Sys"><path d="M375.66,196.4169 C396.86,189.4269 418.82,181.5969 439,173.2969 C460.69,164.3769 484.74,151.4669 498.96,143.4969 " fill="none" id="Sistema muestra listado de pruebas a realizar-backto-Sys" style="stroke:#181818;stroke-width:1.0;"/><polygon fill="#181818" points="370.86,197.9869,380.6578,198.9886,375.6119,196.4314,378.1691,191.3856,370.86,197.9869" style="stroke:#181818;stroke-width:1.0;"/></g><!--MD5=[f8b7285bf4b19ed04bbfe0a83bec9f67]
@startuml
title Cu01- Ver Pruebas

left to right direction

actor User
actor Sys



User - -> (Usuario se loguea)
(Usuario se loguea) - -> Sys

User - -> (Se solicita el listado)
(Se solicita el listado) - -> Sys


User <- - (Sistema muestra listado de pruebas a realizar)
(Sistema muestra listado de pruebas a realizar) <- - Sys
@enduml

PlantUML version 1.2022.4(Sat Apr 09 13:29:17 UTC 2022)
(GPL source distribution)
Java Runtime: OpenJDK Runtime Environment
JVM: OpenJDK 64-Bit Server VM
Default Encoding: UTF-8
Language: en
Country: US
--></g></svg>